<?xml version="1.0" encoding="UTF-8"?>
<svg id="Artwork" xmlns="http://www.w3.org/2000/svg" version="1.1" viewBox="0 0 180 180">
  <!-- Generator: Adobe Illustrator 30.2.1, SVG Export Plug-In . SVG Version: 2.1.1 Build 1)  -->
  <defs>
    <style>
      .st0 {
        fill: #f7f5eb;
      }
    </style>
  </defs>
  <path class="st0" d="M153.3,66c0-10.9-6.2-16.8-17.8-16.8h-9.6l-4,15.8h5.2c5.9,0,8.9,2,8.9,6.9s-4.5,10.6-13.8,10.6h-4.7l-3.5,14.6h4.9c5.9,0,8.9,2.2,8.9,7.2s-4.5,10.6-13.8,10.6h-16.1l-4,15.6h21.8c20.8,0,29.7-10.9,29.7-25s-3.7-13.6-13.4-14.8l.2-1.2c15.1-1.5,21-11.1,21-23.5h.1Z"/>
  <path class="st0" d="M90,0C37.1,0,0,40.3,0,90s37.1,90,90,90,90-40.3,90-90S142.9,0,90,0ZM90,164.2c-44,0-74.2-33.4-74.2-74.2S46,15.8,90,15.8s74.2,33.4,74.2,74.2-30.2,74.2-74.2,74.2Z"/>
  <polygon class="st0" points="108 97.2 111.5 82.6 99.9 82.6 104.3 65 116 65 119.9 49.2 80.4 49.2 76.4 65 88.3 65 83.8 82.6 72 82.6 68.5 97.2 80.4 97.2 72 130.5 88 130.5 96.4 97.2 108 97.2"/>
  <path class="st0" d="M44,108.3c0-5.9,4.5-11.1,13.8-11.1h4.7l3.5-14.6h-4.9c-5.9,0-8.9-1.7-8.9-6.7s4.5-10.9,13.8-10.9h4.5l4-15.8h-10.1c-20.8,0-29.7,11.4-29.7,25.5s3.7,13.4,13.4,14.8l-.2,1c-15.1,1.5-21,11.4-21,23.7s6.2,16.3,17.8,16.3h21.5l4-15.6h-17.1c-5.9,0-8.9-1.7-8.9-6.7h-.2Z"/>
</svg>