<?xml version="1.0" encoding="UTF-8"?>
<svg id="Artwork" xmlns="http://www.w3.org/2000/svg" version="1.1" viewBox="0 0 970 180">
  <!-- Generator: Adobe Illustrator 30.2.1, SVG Export Plug-In . SVG Version: 2.1.1 Build 1)  -->
  <defs>
    <style>
      .st0 {
        fill: #f7f5eb;
      }
    </style>
  </defs>
  <polygon class="st0" points="361.2 25.7 293.7 25.7 285.6 59.1 297.4 59.1 273.7 154.3 311.3 154.3 335 59.1 353.1 59.1 361.2 25.7"/>
  <path class="st0" d="M208.2,52.7c0-14.8-9.4-28.7-32.4-28.7-41.5,0-72.7,47.2-72.7,91.7s14.3,40.3,36.8,40.3,48.2-22.3,54.6-49.9h-35.9c-2,9.6-5.9,17.8-12.1,17.8s-7.7-4.2-7.7-13.4.2-6.2.7-9.4c43.3-1.5,68.5-19.8,68.5-48.5h.2ZM168.9,54.9c3.7,0,5.9,2.2,5.9,5.7-.2,7.2-8.9,14.3-27.7,15.3,5.4-11.9,13.1-21,21.8-21Z"/>
  <polygon class="st0" points="287.6 25.7 219.8 25.7 211.6 59.1 229.9 59.1 206.2 154.3 243.8 154.3 267.5 59.1 279.4 59.1 287.6 25.7"/>
  <path class="st0" d="M111,51.7c0-16.6-10.9-26-34.9-26H31.9L0,154.3h42.8c37.6,0,55.4-17.8,55.4-42.8s-6.9-20.8-24.2-22.3l.2-1.2c24-2.5,36.8-18,36.8-36.3ZM45.2,124.1h-2.2l5.9-23.2h5.4c8.2,0,11.1,3,11.1,7.4,0,8.4-8.7,15.8-20.3,15.8h0ZM56.1,78.1h-1.7l5.7-22.5h5.4c7.9,0,10.4,2.5,10.4,7.4,0,8.7-9.1,15.1-19.8,15.1Z"/>
  <polygon class="st0" points="898 97.2 901.5 82.6 889.9 82.6 894.3 65 906 65 909.9 49.2 870.4 49.2 866.4 65 878.3 65 873.8 82.6 862 82.6 858.5 97.2 870.4 97.2 862 130.5 878 130.5 886.4 97.2 898 97.2"/>
  <path class="st0" d="M943.3,66c0-10.9-6.2-16.8-17.8-16.8h-9.6l-4,15.8h5.2c5.9,0,8.9,2,8.9,6.9s-4.5,10.6-13.8,10.6h-4.7l-3.5,14.6h4.9c5.9,0,8.9,2.2,8.9,7.2s-4.5,10.6-13.8,10.6h-16.1l-4,15.6h21.8c20.8,0,29.7-10.9,29.7-25s-3.7-13.6-13.4-14.8l.2-1.2c15.1-1.5,21-11.1,21-23.5h0Z"/>
  <path class="st0" d="M834,108.3c0-5.9,4.5-11.1,13.8-11.1h4.7l3.5-14.6h-4.9c-5.9,0-8.9-1.7-8.9-6.7s4.5-10.9,13.8-10.9h4.5l4-15.8h-10.1c-20.8,0-29.7,11.4-29.7,25.5s3.7,13.4,13.4,14.8l-.2,1c-15.1,1.5-21,11.4-21,23.7s6.2,16.3,17.8,16.3h21.5l4-15.6h-17.1c-5.9,0-8.9-1.7-8.9-6.7h-.2Z"/>
  <path class="st0" d="M880,0C827.1,0,790,40.3,790,90s37.1,90,90,90,90-40.3,90-90S932.9,0,880,0ZM880,164.2c-44,0-74.2-33.4-74.2-74.2s30.2-74.2,74.2-74.2,74.2,33.4,74.2,74.2-30.2,74.2-74.2,74.2Z"/>
  <polygon class="st0" points="712.1 80.4 710.8 80.4 717.5 25.7 677.2 25.7 684.6 116 675 154.3 711.6 154.3 721.2 116 773.2 25.7 731.1 25.7 712.1 80.4"/>
  <path class="st0" d="M398.3,106.1c-2,9.6-5.9,17.8-12.1,17.8s-7.7-4.2-7.7-13.4.2-6.2.7-9.4c43.3-1.5,68.5-19.8,68.5-48.5s-9.4-28.7-32.4-28.7c-41.5,0-72.7,47.2-72.7,91.7s14.3,40.3,36.8,40.3,48.2-22.3,54.6-49.9h-35.9.2ZM408.5,54.9c3.7,0,5.9,2.2,5.9,5.7-.2,7.2-8.9,14.3-27.7,15.3,5.4-11.9,13.1-21,21.8-21h0Z"/>
  <path class="st0" d="M504.9,96.4l.2-1.5c21.8-1.7,36.3-18.3,36.8-40.5.5-17.8-9.9-28.7-37.1-28.7h-42.3l-32.1,128.6h35.4l11.1-44h6.7c6.9,0,9.4,2.7,7.7,10.1l-7.9,33.9h36.8l5.2-32.4c2.5-14.6-3-23.5-20.5-25.5h0ZM486.1,81.6h-1.7l6.4-25.7h5.4c8.4,0,11.4,3,11.1,7.9-.5,10.6-9.9,17.8-21.3,17.8h.1Z"/>
  <polygon class="st0" points="647.1 120.9 670.8 25.7 634.2 25.7 602.3 154.3 668.3 154.3 676.5 120.9 647.1 120.9"/>
  <polygon class="st0" points="614.2 77.1 582.5 77.1 587 59.1 619.4 59.1 627.5 25.7 558.5 25.7 526.6 154.3 563.2 154.3 574.1 110.5 605.8 110.5 614.2 77.1"/>
</svg>